<?xml version="1.0" ?><svg height="237px" version="1.1" viewBox="0 0 256 237" width="256px" xmlns="http://www.w3.org/2000/svg" xmlns:xlink="http://www.w3.org/1999/xlink"><title/><desc/><defs/><g fill="none" fill-rule="evenodd" id="Classic" stroke="none" stroke-width="1"><g fill="#2A76D0" id="Cardano" transform="translate(-2782.000000, -1132.000000)"><g transform="translate(2782.000000, 1132.000000)"><path d="M120.685427,227.309376 C121.655671,222.940773 127.31073,220.815965 131.038103,223.136562 C133.500831,224.193846 134.220194,226.949644 134.852516,229.292052 C134.514595,230.511947 134.212514,231.733071 133.915553,232.952864 C132.389787,234.761562 130.428821,236.570259 127.889292,236.504928 C123.169967,237.05789 118.912672,231.722934 120.685427,227.309376 M61.0870927,223.921256 C62.0676785,220.968235 64.4433666,218.033236 67.9198585,218.801239 C72.9873445,219.160869 74.4914009,226.798706 70.0561345,229.152583 C66.0676409,231.841923 61.4404763,228.159299 61.0870927,223.921256 M184.621646,227.157107 C182.158917,223.430963 185.058178,218.942039 189.05681,218.092014 C192.272283,218.746147 195.671872,221.164024 194.99603,224.891499 C194.527548,229.935945 187.149603,231.483522 184.621646,227.157107 M169.059352,188.683965 C174.595423,185.262564 182.463558,190.17645 181.939985,196.619992 C182.082117,203.354146 173.189875,207.667761 168.035349,203.243963 C163.044561,199.776482 163.653843,191.441196 169.059352,188.683965 M79.569127,188.596924 C84.9528254,185.764326 92.17717,190.656502 91.6869796,196.681432 C91.8507177,201.6287 87.0226437,205.845034 82.140707,205.114101 C78.097122,205.02706 75.460313,201.402088 74.1637198,197.955087 C74.23028,194.198223 75.7765253,190.01394 79.569127,188.596924 M123.748427,178.290329 C130.069191,175.501251 138.121647,181.003938 137.522605,187.965933 C137.991086,195.65876 128.031321,200.986138 121.851563,196.366551 C114.986848,192.399868 116.131172,180.730017 123.748427,178.290329 M28.3626034,167.840373 C33.1907799,164.626231 40.1385412,169.419899 39.0531999,175.064718 C38.4758668,180.056735 32.1872565,182.909916 28.0451624,180.077215 C23.599656,177.505738 23.7634965,170.184113 28.3626034,167.840373 M217.760959,176.503545 C215.26495,171.850678 219.798726,165.683617 224.964823,166.545111 C227.536403,166.501489 229.334758,168.527787 230.980844,170.227633 C231.318765,172.98466 231.885858,176.274271 229.59721,178.399078 C226.489257,182.332583 219.449233,181.21007 217.760959,176.503545 M184.718926,143.36157 C191.093348,140.691481 198.917963,146.205842 198.427773,153.124214 C198.683774,160.74024 189.023529,165.992047 182.789908,161.546643 C175.729404,157.55559 177.014631,145.810167 184.718926,143.36157 M66.5041736,143.0429 C73.6529468,141.823005 80.3550497,149.798763 77.455891,156.586677 C75.3413238,163.819828 64.8145679,165.782126 60.160472,159.873626 C54.7012021,154.199418 58.776736,143.82616 66.5041736,143.0429 M144.224708,136.591678 C154.555674,133.703988 165.823501,142.344018 165.659661,153.066665 C166.204943,163.461427 155.765227,172.536658 145.563592,170.474725 C135.963559,169.233121 128.880015,158.685885 131.560344,149.36991 C132.913258,143.161889 138.099836,138.113552 144.224708,136.591678 M103.91481,136.613387 C114.093405,133.966338 125.034882,142.454098 125.098882,152.934774 C125.763256,163.525427 114.986848,172.916871 104.567612,170.470834 C96.5138248,169.174138 90.1943921,161.416083 90.455513,153.277815 C90.4338041,145.494057 96.3077953,138.259472 103.91481,136.613387 M247.3137,113.264878 C250.037549,111.325723 254.407484,112.719596 255.486476,115.901687 C257.316882,119.37695 253.960813,124.138567 250.04912,123.550891 C244.557901,124.051424 242.781255,115.682755 247.3137,113.264878 M3.4177759,113.362056 C7.2859491,111.673782 12.0706054,115.026062 11.1874024,119.321757 C10.9801441,124.185876 3.7993196,126.055911 1.16117939,121.991948 C-1.16965736,119.169487 0.225547402,114.817472 3.4177759,113.362056 M209.303919,119.4857 C209.118369,114.158321 213.015931,109.440123 218.479092,109.145722 C222.882307,109.843375 227.163871,113.395336 226.81571,118.189004 C227.218962,124.519906 219.590136,128.823383 214.196095,125.84855 C211.668138,124.563426 210.371545,121.970137 209.304021,119.4857 M35.0313238,110.235057 C41.4608369,107.803049 48.5879013,114.898062 45.9830412,121.272483 C44.3920469,127.079914 36.207699,129.226533 31.9797934,124.944969 C27.0326277,120.924424 28.8643651,111.978525 35.0313238,110.235057 M163.556562,101.633427 C170.792478,99.5636092 179.293039,102.352892 183.182921,108.944915 C188.325978,116.484141 185.87093,127.728928 178.213944,132.589053 C170.193436,138.232541 157.769714,135.269382 153.356259,126.445032 C148.005841,117.31727 153.389539,104.417488 163.556562,101.633427 M82.9048184,101.671828 C90.3479926,99.6238206 98.8587928,103.132364 102.509365,109.973936 C106.508099,116.860359 104.873585,126.427112 98.6630034,131.478009 C90.697485,138.886675 76.0069261,135.911944 71.7674492,125.801241 C66.895855,116.532678 72.813264,104.111516 82.9048184,101.671828 M183.390281,74.3693344 C189.754463,70.6650017 198.591613,76.0576089 198.308681,83.3690963 C198.745214,91.1155803 188.964649,96.5748502 182.627399,92.0308347 C176.044285,88.2472442 176.557618,77.5911566 183.390281,74.3693344 M57.6324121,82.1351721 C58.2430254,76.9600632 63.1249621,73.5923205 68.0503165,73.2442617 C73.357317,73.8842639 77.5966915,78.005878 78.1739222,83.3767763 C77.8257611,88.6939145 73.716947,93.8907322 68.0823678,93.8586809 C61.8833578,94.3923915 56.4484593,88.2254329 57.6324121,82.1351721 M100.209146,67.5789624 C108.241225,63.7874871 119.050811,66.9683491 122.930555,75.1847484 C127.496382,83.1822157 123.966027,94.3182537 115.803491,98.4475478 C107.630714,103.088844 96.1003322,99.5700604 92.1451187,90.9837911 C87.7099548,82.6803516 91.6485794,71.4023867 100.209146,67.5789624 M142.730891,66.7175707 C149.978276,64.1139394 158.586357,67.2295724 162.716982,73.6909321 C168.165909,81.5898902 165.266648,93.6192689 156.810939,98.1518156 C148.049361,103.512474 135.255666,98.9684583 132.019917,89.184105 C128.346305,80.4250863 133.697952,69.4631288 142.730891,66.7175707 M220.032915,56.6502851 C224.424661,53.2402511 231.672046,57.1519444 231.148473,62.6970257 C231.442874,67.753043 225.177304,71.5661248 220.817609,68.9625959 C216.016364,66.8045086 215.526071,59.4175522 220.032915,56.6502851 M28.3843123,56.6605251 C33.56065,53.4783319 40.5443538,59.2857629 38.5846159,64.9087709 C37.5056234,69.7727875 30.9673611,71.7517767 27.2297484,68.6463837 C23.240026,65.7369849 23.8723481,58.7418122 28.3843123,56.6605251 M117.632668,48.5004461 C117.577577,42.9004782 122.678445,38.7276639 128.000704,38.3462226 C131.530853,39.0540139 135.378546,40.5580702 136.892843,44.1202711 C139.715303,49.0342591 137.208953,55.8002598 132.109518,58.0557299 C129.777247,59.3625632 127.020118,58.8722703 124.480691,58.720001 C120.598387,56.8141257 117.329256,53.0765129 117.632668,48.5004461 M165.005527,36.5144852 C167.533587,29.9992629 177.777411,29.8021423 180.654963,36.1446151 C183.499031,41.0802096 180.00083,47.1922816 174.933344,48.8703162 C168.221001,50.1234916 161.845248,42.8670957 165.005527,36.5144852 M78.5016034,32.7116434 C84.1682339,29.1276312 92.2539703,34.4652494 91.3823385,41.0470319 C91.0879375,47.6927121 82.2610274,51.5430677 77.2804792,47.0502523 C72.4651028,43.5212291 73.1947053,35.4252527 78.5016034,32.7116434 M187.760216,17.7419411 C182.463558,17.1019389 181.625104,8.7742305 186.724642,7.09742478 C190.679855,5.1685094 194.308719,8.78580174 194.887281,12.5348833 C194.057838,15.7362255 191.377509,18.6674355 187.760216,17.7419411 M64.8465168,7.16910502 C68.2359683,5.77390026 72.526543,8.87919086 72.1809418,12.5732835 C72.5406742,16.5835884 67.6369263,19.5352784 64.1822457,17.6293007 C59.6049501,15.8565459 60.1284207,8.42606931 64.8465168,7.16910502 M124.859573,0.699962944 C130.439061,-2.20943579 137.250015,4.53997605 134.285423,10.1144463 C132.563868,14.6584618 126.035846,15.8667859 122.701383,12.4029917 C119.168571,9.07887154 120.320575,2.50855792 124.859573,0.699962944" id="Logo"/></g></g></g></svg>