<?xml version="1.0" ?><svg height="256px" version="1.1" viewBox="0 0 256 256" width="256px" xmlns="http://www.w3.org/2000/svg" xmlns:xlink="http://www.w3.org/1999/xlink"><title/><desc/><defs/><g fill="none" fill-rule="evenodd" id="Classic" stroke="none" stroke-width="1"><g fill="#66DEAE" id="Particl" transform="translate(-2176.000000, -5445.000000)"><g transform="translate(2176.000000, 5445.000000)"><path d="M10.9584608,201.305763 C4.90696821,201.30647 0.00070755396,196.40137 3.08807547e-07,190.349837 C-0.000706936345,184.298405 4.90444234,179.392193 10.955935,179.391385 C17.0080338,179.39088 21.9137893,184.295374 21.9144965,190.346099 C21.9152038,196.398844 17.0100545,201.305056 10.9584608,201.305763 Z M52.1858372,158.202177 C52.1865444,164.253637 47.2813726,169.159972 41.229852,169.160578 C35.1783315,169.161285 30.2720482,164.256162 30.271341,158.204601 C30.2706337,152.153141 35.1758056,147.246907 41.2273261,147.2462 C47.2807663,147.2462 52.1851299,152.150716 52.1858372,158.202177 Z M79.1639723,245.041278 C79.1646795,251.092839 74.2594066,255.998973 68.2078861,255.999781 C62.1563656,256.000488 57.2499812,251.095264 57.249274,245.043905 C57.2485667,238.992344 62.1537386,234.08611 68.2053602,234.085403 C74.2586994,234.085403 79.1632651,238.989717 79.1639723,245.041278 Z M190.341721,255.999781 C184.290072,256.001195 179.38316,251.096656 179.381745,245.045067 C179.380331,238.993579 184.28502,234.086716 190.336669,234.085403 C196.390036,234.084695 201.295736,238.989235 201.296443,245.040015 C201.29715,251.090796 196.393269,255.998366 190.341721,255.999781 Z M158.516001,225.53973 C152.464408,225.540437 147.558147,220.635236 147.55744,214.583803 C147.556732,208.532371 152.461983,203.626059 158.513374,203.625351 C164.565574,203.624745 169.471229,208.529239 169.471936,214.579964 C169.472643,220.63271 164.567494,225.538921 158.516001,225.53973 Z M256,187.607377 C256,193.658928 251.094263,198.564616 245.042752,198.564616 C238.99114,198.564616 234.085403,193.658928 234.085403,187.607377 C234.085403,181.556432 238.990332,176.650945 245.041438,176.650238 C251.09305,176.649632 256,181.555825 256,187.607377 Z M225.562375,98.2796997 C225.563083,104.33115 220.657851,109.237445 214.606441,109.238152 C208.554829,109.238859 203.648486,104.333676 203.647778,98.2822259 C203.647071,92.2307756 208.552303,87.324481 214.603814,87.3237737 C220.655426,87.3230664 225.561668,92.2282494 225.562375,98.2796997 Z M255.999781,65.5029428 C255.999781,71.5543931 251.094093,76.4601824 245.042642,76.4601824 C238.991091,76.4601824 234.085403,71.5543931 234.085403,65.5029428 C234.085403,59.4513915 238.991091,54.5458043 245.042642,54.5458043 C251.094093,54.5458043 255.999781,59.4514925 255.999781,65.5029428 Z M198.507942,10.9571385 C198.507942,17.0086899 193.602103,21.9143781 187.550694,21.9143781 C181.499082,21.9143781 176.593344,17.0086899 176.593344,10.9571385 C176.593344,4.90568827 181.499082,0 187.550694,0 C193.606549,-0.000707322867 198.507942,4.90558722 198.507942,10.9571385 Z M21.9144962,69.2721468 C21.9159107,75.3235789 17.0112667,80.2303966 10.9597741,80.2318111 C4.9082816,80.2332256 0.00141479617,75.3287316 3.05881642e-07,69.2771985 C-0.0014141844,63.2257665 4.90312881,58.3189488 10.9547224,58.3174333 C17.0080336,58.3168271 21.9130817,63.2207148 21.9144962,69.2721468 Z M108.282601,41.2524525 C108.282601,47.3039027 103.376864,52.2096921 97.3252517,52.2096921 C91.273842,52.2096921 86.3680036,47.3039027 86.3680036,41.2524525 C86.3680036,35.2014064 91.2730336,30.2959202 97.3241402,30.2953139 C103.37555,30.2945056 108.282601,35.2010022 108.282601,41.2524525 Z M76.0375412,11.8330753 C76.0382485,17.8846363 71.1330766,22.7908705 65.0815561,22.7915778 C59.0299345,22.792285 54.1237523,17.8871622 54.122944,11.8356011 C54.1222367,5.78414111 59.0275097,0.877906892 65.0789292,0.877199651 C71.1323694,0.877199651 76.036834,5.78151421 76.0375412,11.8330753 Z M139.182235,236.269302 C148.278517,244.926501 135.586415,262.532113 122.795369,251.289444 C111.215636,241.111457 100.7246,231.573719 90.7476156,221.123274 C80.7706309,210.67283 95.8592673,195.755108 106.391373,205.069489 C121.568283,219.73487 132.49857,230.134808 139.182235,236.269302 Z M226.020162,209.449491 C235.116444,218.10669 222.424343,235.712302 209.633297,224.469633 C198.053563,214.291645 187.562528,204.753908 177.585543,194.303463 C167.608558,183.853019 182.697195,168.935297 193.229301,178.249678 C208.40621,192.915059 219.336497,203.314997 226.020162,209.449491 Z M220.446147,166.114935 C211.631515,175.058742 194.250092,162.061313 205.714283,149.468427 C216.092815,138.068087 225.812194,127.745106 236.435169,117.952027 C247.058144,108.158947 261.710261,123.505635 252.213488,133.873579 C237.285467,148.792231 226.696353,159.539349 220.446147,166.114935 Z M193.551229,78.4574221 C184.736596,87.4012291 167.355173,74.4038008 178.819365,61.8109145 C189.197896,50.4105749 198.917275,40.0875938 209.540251,30.294514 C220.163226,20.5014342 234.815343,35.8481226 225.31857,46.2160663 C210.390548,61.1347181 199.801435,71.8818367 193.551229,78.4574221 Z M47.1233384,226.877529 C38.3087062,235.821335 20.9272833,222.823907 32.3914744,210.231021 C42.7700063,198.830681 52.4893851,188.5077 63.1123603,178.71462 C73.7353356,168.921541 88.3874526,184.268229 78.8906795,194.636173 C63.962658,209.554825 53.3735443,220.301943 47.1233384,226.877529 Z M20.2284198,139.220016 C11.4137876,148.163823 -5.96763535,135.166395 5.4965558,122.573508 C15.8750877,111.173169 25.5944664,100.850188 36.2174417,91.0571079 C46.840417,81.2640281 61.4925339,96.6107165 51.9957609,106.97866 C37.0677394,121.897312 26.4786257,132.644431 20.2284198,139.220016 Z M165.257569,35.1305742 C174.35385,43.787773 161.661749,61.393385 148.870703,50.1507161 C137.290969,39.9727283 126.799934,30.4349907 116.822949,19.9845462 C106.845964,9.53410166 121.934601,-5.38362038 132.466707,3.9307607 C147.643616,18.5961422 158.573904,28.9960801 165.257569,35.1305742 Z M78.5961642,63.021601 C87.6924455,71.6787997 75.0003444,89.2844118 62.2092983,78.0417428 C50.6295647,67.863755 40.1385293,58.3260174 30.1615446,47.8755729 C20.1845598,37.4251284 35.2731962,22.5074063 45.8053023,31.8217874 C60.9822119,46.4871689 71.9124991,56.8871068 78.5961642,63.021601 Z" id="Logo"/></g></g></g></svg>